<?xml version="1.0" encoding="iso-8859-1"?>
<!-- Generator: Adobe Illustrator 19.0.0, SVG Export Plug-In . SVG Version: 6.00 Build 0)  -->
<svg version="1.1" id="Capa_1" xmlns="http://www.w3.org/2000/svg" xmlns:xlink="http://www.w3.org/1999/xlink" x="0px" y="0px"
	 viewBox="0 0 512 512" style="enable-background:new 0 0 512 512;" xml:space="preserve">
<g>
	<g transform="translate(1 1)">
		<path style="fill:#AD1457;" d="M391.363,97.475l-2.046,37.973l-3.671,66.901c-0.088,0.853-0.088,1.707-0.171,2.56
			c-2.5,33.418-18.113,64.491-43.434,86.443c-14.897,12.946-32.557,22.315-51.629,27.392c-11.066,3.03-22.49,4.551-33.963,4.523
			c-32.294,0.049-63.447-11.938-87.379-33.621c-24.119-21.591-39.027-51.618-41.646-83.883l-0.167-1.536l-5.633-68.949l-2.9-35.499
			c-1.785-23.913,6.512-47.482,22.883-65.004S180.93,7.376,204.908,7.533h100.183c23.579-0.176,46.19,9.368,62.512,26.385
			C383.927,50.935,392.52,73.923,391.363,97.475z"/>
		<path style="fill:#E91E63;" d="M365.809,92.613l-1.662,35.921l-2.982,63.285c-0.071,0.808-0.071,1.615-0.139,2.422
			c-1.584,30.605-14.108,59.623-35.289,81.77c-11.637,11.958-26.046,20.858-41.948,25.911c-8.919,2.855-18.229,4.298-27.594,4.278
			c-10.364,0.013-20.655-1.734-30.434-5.166c-15.471-5.477-29.387-14.616-40.56-26.637c-20.158-21.713-32.122-49.771-33.837-79.349
			l-0.135-1.453l-4.577-65.223l-2.356-33.58c-3.26-46.979,28.979-87.259,70.023-87.259h81.398
			C335.997,7.533,368.026,46.36,365.809,92.613z"/>
		<path style="fill:#FFFFFF;" d="M344.483,132.205c-0.591,47.301-39.103,85.335-86.408,85.335s-85.817-38.034-86.408-85.335
			c-0.011-9.385,1.567-18.704,4.666-27.563c10.255,3.001,20.707,5.282,31.281,6.827c16.703,2.495,33.572,3.722,50.461,3.669
			c16.889,0.053,33.757-1.174,50.461-3.669c10.573-1.544,21.025-3.825,31.281-6.827C342.916,113.501,344.494,122.82,344.483,132.205
			z"/>
		<path style="fill:#37474F;" d="M294.885,113.261c4.192,6.671,6.409,14.393,6.394,22.272
			c-0.297,23.649-19.553,42.664-43.204,42.664c-23.651,0-42.906-19.015-43.204-42.664c-0.014-7.879,2.203-15.601,6.394-22.272
			H294.885z"/>
		<path style="fill:#E91E63;" d="M212.25,476.013c0.049,0.282,0.076,0.567,0.083,0.853c-0.287,4.296-2.479,8.239-5.975,10.752
			c-6.351,4.913-13.683,8.405-21.5,10.24c1.058-2.602,1.607-5.383,1.617-8.192c0.006-11.282-8.778-20.616-20.04-21.295
			c-11.262-0.678-21.103,7.533-22.452,18.735c-1.372-11.207-11.225-19.413-22.495-18.735c-11.27,0.678-20.069,10.005-20.088,21.295
			c-0.017,1.612,0.184,3.22,0.596,4.779c-10.921-4.523-17.662-10.752-17.662-17.579c0-110.507,77.141-180.565,84.738-187.221
			c14.362,12.951,31.409,22.567,49.921,28.16C210.328,370.072,208.064,423.199,212.25,476.013z"/>
		<path style="fill:#804169;" d="M148.075,502.467c-2.729,0-5.458-0.085-8.104-0.256c2.161-2.934,3.542-6.37,4.012-9.984
			C144.387,495.949,145.802,499.491,148.075,502.467z"/>
		<g>
			<path style="fill:#FFEB3A;" d="M143.983,487.192c-0.102,0.821-0.16,1.647-0.175,2.475c0.015,0.742,0.073,1.483,0.175,2.219v0.341
				c-0.47,3.614-1.851,7.05-4.013,9.984c-1.538-0.085-3.158-0.171-4.608-0.256c-11.442-0.772-22.697-3.305-33.367-7.509
				c-0.412-1.559-0.613-3.166-0.596-4.779c-0.009-3.389,0.812-6.729,2.392-9.728c3.615-7.136,10.942-11.626,18.942-11.605
				c10.796,0.025,19.895,8.063,21.25,18.773V487.192z"/>
			<path style="fill:#FFEB3A;" d="M195.267,489.667c-0.01,2.809-0.559,5.59-1.617,8.192c-2.133,0.597-4.442,1.195-6.741,1.621
				c-9.799,2.017-19.779,3.018-29.783,2.987h-0.259c-2.273-2.976-3.688-6.517-4.092-10.24v-0.341c0-0.768,0.083-1.451,0.083-2.219
				c0-0.853-0.083-1.621-0.083-2.475v-0.085c0.284-2.599,1.065-5.12,2.3-7.424c4.588-8.661,14.487-13.083,23.999-10.72
				S195.265,479.865,195.267,489.667z"/>
		</g>
		<path style="fill:#E91E63;" d="M424.9,476.867c0,6.827-6.741,13.056-17.667,17.579c0.416-1.558,0.617-3.166,0.6-4.779
			c-0.02-11.29-8.819-20.617-20.089-21.294c-11.27-0.677-21.122,7.528-22.495,18.734c-1.352-11.2-11.193-19.41-22.454-18.731
			c-11.261,0.678-20.045,10.01-20.043,21.291c0.009,2.809,0.56,5.591,1.621,8.192c-7.611-1.827-14.778-5.164-21.075-9.813
			c-3.708-2.572-6.059-6.679-6.4-11.179c0.007-0.286,0.035-0.571,0.083-0.853c4.188-52.496,1.981-105.306-6.571-157.269
			c10.63-2.799,20.845-6.988,30.38-12.459c7.557-4.268,14.674-9.27,21.25-14.933C356.033,304.152,424.9,372.504,424.9,476.867z"/>
		<path style="fill:#804169;" d="M369.263,502.211c-2.646,0.171-5.379,0.256-8.108,0.256c2.276-2.975,3.692-6.516,4.096-10.24
			C365.721,495.841,367.101,499.276,369.263,502.211z"/>
		<g>
			<path style="fill:#F9EAB0;" d="M365.25,487.192c0,0.853-0.083,1.621-0.083,2.475c0,0.768,0.083,1.451,0.083,2.219v0.341
				c-0.404,3.724-1.82,7.265-4.096,10.24H360.9c-12.326,0.106-24.611-1.444-36.525-4.608c-1.061-2.601-1.611-5.383-1.621-8.192
				c-0.003-11.281,8.782-20.613,20.043-21.291c11.261-0.678,21.102,7.531,22.454,18.731V487.192z"/>
			<path style="fill:#F9EAB0;" d="M407.833,489.667c0.017,1.613-0.184,3.22-0.6,4.779c-12.127,4.716-24.966,7.342-37.971,7.765
				c-2.161-2.934-3.542-6.37-4.013-9.984v-0.341c0.1-0.736,0.157-1.476,0.171-2.219c-0.013-0.827-0.07-1.653-0.171-2.475v-0.085
				c1.373-11.206,11.225-19.412,22.495-18.734C399.015,469.05,407.813,478.377,407.833,489.667z"/>
		</g>
		<path style="fill:#AD1457;" d="M101.4,242.2c-1.17-0.869-2.429-1.613-3.754-2.219c-6.6-3.126-14.342-2.649-20.508,1.265
			c-6.166,3.914-9.892,10.717-9.871,18.02c0.01,0.799,0.067,1.597,0.171,2.389c0.361,3.426,1.563,6.709,3.5,9.557h-0.171
			c-3.989,0.524-8.01,0.781-12.033,0.768c-1.367,0.085-2.817,0.085-4.267,0.085c-1.45,0-2.9,0-4.267-0.085
			c-1.367,0-2.646-0.085-4.008-0.171h-0.088c2.187-2.976,3.541-6.481,3.925-10.155c0.103-0.792,0.16-1.59,0.171-2.389
			c0.002-10.361-7.442-19.224-17.647-21.013c-10.205-1.788-20.22,4.016-23.741,13.76c-0.395-1.306-0.652-2.651-0.767-4.011
			c-0.351-1.914-0.523-3.857-0.513-5.803c-0.003-1.596,0.083-3.192,0.258-4.779c2.44-24.038,22.747-42.286,46.908-42.154
			s44.266,18.602,46.442,42.666C101.318,239.349,101.404,240.774,101.4,242.2z"/>
		<g>
			<path style="fill:#FFEB3A;" d="M50.2,259.267c0.035,2.485-0.43,4.952-1.367,7.253c-0.614,1.901-1.536,3.688-2.729,5.291
				c-16.725-0.597-30.462-4.096-35.842-16.043c-0.584-1.21-1.069-2.466-1.45-3.755c3.521-9.744,13.536-15.548,23.741-13.76
				C42.759,240.042,50.202,248.906,50.2,259.267z"/>
			<path style="fill:#FFEB3A;" d="M92.867,243.053c0.008,1.568-0.078,3.135-0.258,4.693c-0.083,0.427-0.083,0.853-0.167,1.195
				c-0.157,1.214-0.415,2.413-0.771,3.584c-2.987,11.435-12.117,16.555-24.233,18.859c-1.621,0.256-3.329,0.512-5.033,0.683
				c-0.509-0.689-0.938-1.433-1.279-2.218c-0.337-0.601-0.622-1.229-0.854-1.877c-0.102-0.192-0.188-0.392-0.258-0.597
				c-0.209-0.586-0.38-1.184-0.513-1.792c-0.166-0.377-0.252-0.783-0.254-1.195c-0.162-0.558-0.276-1.129-0.341-1.707v-0.256
				c-0.101-0.764-0.158-1.534-0.171-2.304c0.005-11.78,9.553-21.329,21.333-21.333c1.001-0.003,2.001,0.083,2.988,0.256
				c0.431,0.015,0.859,0.072,1.279,0.171c0.811,0.177,1.61,0.405,2.392,0.683c0.083,0,0.167,0.085,0.254,0.085
				c0.731,0.233,1.444,0.518,2.133,0.853C90.438,241.441,91.697,242.184,92.867,243.053z"/>
		</g>
		<path style="fill:#E91E63;" d="M127.258,204.227l-1.367,0.085c-24.492,9.045-24.492,42.155-24.492,42.155h-0.258
			c-2.177-24.063-22.281-42.533-46.442-42.666c-24.161-0.133-44.467,18.116-46.908,42.154H7.533
			c0.425-96.683,110.933-110.421,110.933-110.421l3.158-0.256l2.646,32.768L127.258,204.227z"/>
		<circle style="fill:#FFFFFF;" cx="242.2" cy="139.8" r="12.8"/>
		<g>
			<path style="fill:#AD1457;" d="M218.992,317.805c-8.664,52.267-10.928,105.394-6.741,158.208
				c0.048,0.282,0.076,0.567,0.083,0.853c-0.287,4.296-2.479,8.239-5.975,10.752c-17.233-25.771-28.158-65.024-28.158-108.885
				c-0.18-25.087,3.68-50.039,11.433-73.899C198.816,310.412,208.685,314.772,218.992,317.805z"/>
			<path style="fill:#AD1457;" d="M331.8,378.733c0,44.117-11.092,83.541-28.5,109.312c-3.708-2.572-6.059-6.679-6.4-11.179
				c0.007-0.286,0.035-0.571,0.083-0.853c4.188-52.496,1.981-105.306-6.571-157.269c10.63-2.799,20.845-6.988,30.379-12.459
				C328.259,329.703,331.975,354.155,331.8,378.733z"/>
			<path style="fill:#AD1457;" d="M124.271,168.045l2.987,36.181l-1.367,0.085c-24.492,9.045-24.492,42.155-24.492,42.155h-0.258
				c-1.331-14.776-9.553-28.058-22.183-35.84C90.334,192.925,105.897,178.3,124.271,168.045z"/>
		</g>
		<g>
			
				<ellipse transform="matrix(-0.9753 -0.2208 0.2208 -0.9753 172.6657 818.409)" style="fill:#FFEB3A;" cx="132.073" cy="399.554" rx="21.333" ry="34.133"/>
			
				<ellipse transform="matrix(-0.2208 -0.9753 0.9753 -0.2208 85.104 800.8819)" style="fill:#FFEB3A;" cx="362.472" cy="366.445" rx="34.133" ry="21.333"/>
			<path style="fill:#FFEB3A;" d="M365.25,487.192c0.102,0.821,0.16,1.647,0.175,2.475c-0.015,0.742-0.073,1.483-0.175,2.219v0.341
				c0.47,3.614,1.851,7.05,4.013,9.984c1.537-0.085,3.158-0.171,4.608-0.256c11.442-0.772,22.697-3.305,33.367-7.509
				c0.412-1.559,0.613-3.166,0.596-4.779c0.009-3.389-0.812-6.729-2.392-9.728c-3.615-7.136-10.942-11.625-18.941-11.605
				c-10.796,0.025-19.895,8.063-21.25,18.773V487.192z"/>
			<path style="fill:#FFEB3A;" d="M306.375,489.667c0.01,2.809,0.559,5.59,1.617,8.192c2.133,0.597,4.442,1.195,6.741,1.621
				c9.799,2.017,19.779,3.018,29.783,2.987h0.258c2.273-2.976,3.688-6.517,4.092-10.24v-0.341c0-0.768-0.083-1.451-0.083-2.219
				c0-0.853,0.083-1.621,0.083-2.475v-0.085c-0.284-2.599-1.065-5.12-2.3-7.424c-4.588-8.662-14.487-13.083-23.999-10.72
				C313.055,471.325,306.376,479.865,306.375,489.667L306.375,489.667z"/>
		</g>
		<path style="fill:#AD1457;" d="M408.6,242.2c1.17-0.869,2.429-1.613,3.754-2.219c6.6-3.126,14.342-2.649,20.508,1.265
			c6.166,3.914,9.892,10.717,9.871,18.02c-0.01,0.799-0.067,1.597-0.171,2.389c-0.361,3.426-1.563,6.709-3.5,9.557h0.171
			c3.989,0.524,8.01,0.781,12.033,0.768c1.367,0.085,2.817,0.085,4.267,0.085c1.45,0,2.9,0,4.267-0.085
			c1.367,0,2.646-0.085,4.008-0.171h0.088c-2.187-2.976-3.541-6.481-3.925-10.155c-0.103-0.792-0.16-1.59-0.171-2.389
			c-0.002-10.361,7.442-19.224,17.647-21.013c10.205-1.788,20.22,4.016,23.741,13.76c0.395-1.306,0.652-2.651,0.767-4.011
			c0.351-1.914,0.523-3.857,0.513-5.803c0.003-1.596-0.083-3.192-0.258-4.779c-2.44-24.038-22.747-42.286-46.908-42.154
			c-24.161,0.133-44.266,18.602-46.442,42.666C408.683,239.349,408.596,240.774,408.6,242.2z"/>
		<g>
			<path style="fill:#FFEB3A;" d="M459.8,259.267c-0.035,2.485,0.43,4.952,1.367,7.253c0.614,1.901,1.536,3.688,2.729,5.291
				c16.725-0.597,30.462-4.096,35.842-16.043c0.584-1.21,1.069-2.466,1.45-3.755c-3.521-9.744-13.536-15.548-23.741-13.76
				C467.242,240.042,459.798,248.906,459.8,259.267z"/>
			<path style="fill:#FFEB3A;" d="M417.133,243.053c-0.008,1.568,0.078,3.135,0.258,4.693c0.083,0.427,0.083,0.853,0.167,1.195
				c0.157,1.214,0.415,2.413,0.771,3.584c2.987,11.435,12.117,16.555,24.233,18.859c1.621,0.256,3.329,0.512,5.033,0.683
				c0.509-0.689,0.938-1.433,1.279-2.218c0.337-0.601,0.622-1.229,0.854-1.877c0.102-0.192,0.188-0.392,0.258-0.597
				c0.209-0.586,0.38-1.184,0.513-1.792c0.165-0.377,0.252-0.783,0.254-1.195c0.162-0.558,0.276-1.129,0.341-1.707v-0.256
				c0.101-0.764,0.158-1.534,0.171-2.304c-0.005-11.78-9.553-21.329-21.333-21.333c-1.001-0.003-2.001,0.083-2.988,0.256
				c-0.431,0.015-0.859,0.072-1.279,0.171c-0.811,0.177-1.61,0.405-2.392,0.683c-0.083,0-0.167,0.085-0.254,0.085
				c-0.731,0.233-1.444,0.518-2.133,0.853C419.562,241.441,418.304,242.184,417.133,243.053z"/>
			
				<ellipse transform="matrix(-0.6435 -0.7654 0.7654 -0.6435 -27.7283 343.1325)" style="fill:#FFEB3A;" cx="66.04" cy="178.023" rx="12.8" ry="21.333"/>
		</g>
		<path style="fill:#E91E63;" d="M502.467,245.955h-0.258c-2.422-23.954-22.599-42.177-46.675-42.155
			c-8.651-0.043-17.139,2.353-24.492,6.912c-12.501,7.63-20.709,20.672-22.183,35.243H408.6
			c-0.171-4.181-1.708-32.085-23.125-41.045c0.083-0.853,0.083-1.707,0.171-2.56l1.792-33.28l1.879-33.621l2.558,0.171
			C398.358,136.472,502.042,152.429,502.467,245.955z"/>
		<path style="fill:#AD1457;" d="M431.042,210.712c-12.501,7.63-20.709,20.672-22.183,35.243H408.6
			c-0.171-4.181-1.708-32.085-23.125-41.045c0.083-0.853,0.083-1.707,0.171-2.56l1.792-33.28
			C405.113,179.236,420.072,193.522,431.042,210.712z"/>
		
			<ellipse transform="matrix(-0.7654 -0.6435 0.6435 -0.7654 655.045 578.4715)" style="fill:#FFEB3A;" cx="432.95" cy="169.853" rx="21.333" ry="12.8"/>
	</g>
	<g>
		<path d="M256,230.4c51.817-0.059,93.808-42.05,93.867-93.867c0.015-10.332-1.702-20.594-5.079-30.358
			c-1.499-4.33-6.153-6.702-10.538-5.371c-9.742,2.887-19.677,5.079-29.729,6.558c-32.182,4.745-64.885,4.743-97.067-0.004
			c-10.044-1.479-19.971-3.669-29.705-6.554c-4.385-1.328-9.036,1.042-10.538,5.371c-3.377,9.765-5.094,20.026-5.079,30.358
			C162.192,188.35,204.183,230.341,256,230.4z M287.386,126.557c1.797,4.206,2.722,8.732,2.718,13.306
			c0,18.838-15.271,34.108-34.108,34.108s-34.108-15.271-34.108-34.108c0-4.575,0.931-9.102,2.734-13.306
			C245.503,128.376,266.504,128.376,287.386,126.557z M181.125,119.458c7.437,1.9,15.387,3.5,23.729,4.771
			c0.78,0.121,1.602,0.203,2.388,0.318c-6.72,21.058,0.84,44.05,18.745,57.012c17.905,12.961,42.109,12.962,60.014,0.001
			c17.906-12.961,25.467-35.953,18.748-57.011c0.781-0.115,1.597-0.196,2.371-0.316c8.358-1.275,16.313-2.875,23.754-4.775
			c1.285,5.601,1.93,11.329,1.925,17.075c0,42.415-34.385,76.8-76.8,76.8s-76.8-34.385-76.8-76.8
			C179.195,130.787,179.84,125.059,181.125,119.458z"/>
		<path d="M0.479,249.193c0.018,0.093,0.027,0.217,0.046,0.303c0.159,2.061,0.543,4.098,1.146,6.075
			c0.48,1.611,1.084,3.183,1.808,4.7c8.004,17.779,28.558,20.542,43.563,21.083c1.396,0.083,2.717,0.192,3.637,0.146
			c1.533,0.096,3.162,0.1,4.787,0.1h0.009c1.622,0,3.247-0.004,4.258-0.083c4.264,0.012,8.524-0.252,12.754-0.792l0.3-0.021
			c1.871-0.188,3.746-0.463,5.779-0.792c16.996-3.233,27.392-11.671,30.792-24.73c0.47-1.541,0.819-3.117,1.042-4.713
			c0.054-0.317,0.092-0.625,0.108-0.875l0.007-0.061c0.227-0.668,0.368-1.363,0.418-2.067c0.164-10.449,3.851-20.537,10.464-28.629
			c4.528,27.035,17.221,52.037,36.372,71.649C136.434,311.468,76.8,378.954,76.8,477.867c0,5.962,2.979,17.196,22.846,25.425
			c11.569,4.592,23.784,7.352,36.204,8.179l4.558,0.254c2.829,0.183,5.746,0.275,8.925,0.275c0.41,0,0.817-0.028,1.226-0.031
			l0.132,0.031c0.102,0,0.197-0.038,0.299-0.042c1.236-0.013,2.47-0.052,3.704-0.092c0.121,0.005,0.233,0.055,0.355,0.055
			c0.142,0,0.286-0.067,0.429-0.074c8.465-0.282,16.891-1.277,25.188-2.975c2.554-0.471,5.117-1.133,7.475-1.792
			c7.342-1.873,14.34-4.899,20.734-8.965c0.119-0.072,0.212-0.167,0.327-0.244c1.272-0.839,2.493-1.752,3.659-2.732
			c5.483-4.078,8.8-10.44,9.004-17.271c0.001-0.636-0.048-1.271-0.146-1.9c-3.831-48.882-2.074-98.042,5.238-146.526
			c19.127,4.276,38.94,4.472,58.148,0.577c7.241,48.188,8.993,97.041,5.222,145.624c-0.127,0.735-0.193,1.479-0.196,2.225
			c0.172,6.73,3.403,13.014,8.775,17.071c1.19,1.062,2.455,2.038,3.783,2.921c0.082,0.057,0.185,0.108,0.269,0.165l0.126,0.077
			c6.413,4.054,13.418,7.084,20.764,8.98c2.371,0.658,4.929,1.321,7.263,1.746c8.495,1.757,17.124,2.79,25.794,3.088l0.043,0.008
			l0.025-0.004l4.152,0.058c0.061,0.001,0.119,0.025,0.182,0.025l0.092-0.021l1.521,0.021c2.917,0,5.833-0.087,8.592-0.267
			l4.85-0.275c12.319-0.838,24.434-3.58,35.913-8.129c3.76-1.516,7.346-3.433,10.696-5.717c7.213-4.028,11.836-11.494,12.229-19.746
			c0-96.48-57.062-163.319-79.481-185.868c19.229-19.166,32.211-43.7,37.238-70.38c5.03,7.706,7.836,16.65,8.109,25.848
			c0.052,0.649,0.181,1.289,0.385,1.907l0.002,0.026c0.017,0.183,0.062,0.496,0.112,0.817c0.199,1.561,0.523,3.104,0.971,4.612
			c1.718,6.88,5.794,12.939,11.52,17.122l0.178,0.122c5.813,4.049,12.46,6.742,19.452,7.88c1.779,0.288,3.654,0.563,5.525,0.75
			l0.3,0.021c4.059,0.494,8.144,0.752,12.233,0.775c1.53,0.096,3.156,0.1,4.778,0.1h0.009c1.625,0,3.254-0.004,4.267-0.083
			c1.417,0,2.754-0.079,4.4-0.175c14.763-0.529,35.317-3.292,43.171-20.758c0.835-1.728,1.525-3.524,2.063-5.367
			c0.528-1.784,0.877-3.617,1.042-5.471c0.031-0.183,0.045-0.367,0.072-0.55c0.254-0.722,0.407-1.476,0.453-2.241
			c0-0.733-0.049-1.419-0.09-2.116l0.007-0.101l-0.005-0.273c0.021-0.421,0.089-0.843,0.089-1.264
			c0.004-1.911-0.099-3.821-0.308-5.721c-0.016-0.141-0.098-0.272-0.121-0.412c-0.002-0.195-0.023-0.387-0.038-0.58l0.009-0.082
			l-0.031-0.252l-0.007-0.102l-0.019-0.109c-7.28-80.54-89.186-102.332-112.255-106.876l1.653-30.115
			c1.504-25.591-7.7-50.656-25.408-69.192C357.394,10.763,332.317,0.007,306.092,0H205.908
			c-26.63-0.002-52.056,11.094-70.163,30.621c-17.816,19.094-26.725,44.832-24.525,70.854l2.242,27.427
			C91.98,133.012,7.555,154.358,0.458,236.404l0.01,0.088l-0.022,0.129l-0.049,0.558c-0.014,0.094-0.069,0.182-0.08,0.276H0.313
			C0.102,239.362-0.002,241.28,0,243.2c0,0.45,0.066,0.899,0.091,1.349l-0.007,0.189l0.007,0.099C0.05,245.534,0,246.22,0,246.954
			C0.049,247.72,0.211,248.474,0.479,249.193z M72.533,230.4c-8.039,0.003-15.735,3.261-21.333,9.031
			c-8.4-8.765-21.333-11.445-32.524-6.741c4.962-17.659,21.765-29.306,40.042-27.753c18.277,1.552,32.875,15.867,34.787,34.109
			C87.931,233.508,80.392,230.4,72.533,230.4z M19.181,253.484c3.354-5.446,10.237-7.543,16.058-4.893
			c5.821,2.65,8.758,9.22,6.852,15.325C26.172,262.526,21.359,257.91,19.181,253.484z M75.629,263.104
			c-1.462,0.229-3.004,0.463-3.862,0.575c-0.386-0.001-0.772,0.026-1.154,0.079c-3.365,0.426-6.752,0.65-10.143,0.669
			c-0.481-1.335-0.73-2.742-0.736-4.161c-0.01-6.999,5.61-12.705,12.609-12.801s12.773,5.453,12.956,12.45
			C82.255,261.461,78.995,262.536,75.629,263.104z M177.046,307.15c2.957,2.09,5.995,4.102,9.154,5.975
			c0.368,0.224,0.767,0.394,1.137,0.614c1.805,1.055,3.659,2.004,5.514,2.978c2.708,1.439,5.439,2.817,8.242,4.066
			c1.493,0.663,3.002,1.269,4.52,1.879c1.6,0.643,3.149,1.403,4.775,1.984c-7.449,48.691-9.507,98.055-6.137,147.197
			c-6.114-6.709-14.668-10.68-23.739-11.02c-9.071-0.34-17.898,2.979-24.498,9.211c-6.532-10.379-17.669-16.97-29.911-17.7
			s-24.084,4.49-31.803,14.02c4.43-87.264,57.607-146.393,75.988-164.266c1.398,1.131,2.895,2.179,4.353,3.26
			C175.446,305.948,176.227,306.567,177.046,307.15z M137.088,494.45c-10.566-0.713-20.961-3.036-30.825-6.887
			c-1.212-0.502-2.305-1.009-3.317-1.517c2.453-11.464,13.712-18.789,25.187-16.384c11.475,2.405,18.846,13.634,16.489,25.118
			c-1.065-0.043-2.12-0.022-3.187-0.093L137.088,494.45z M183.563,490.637c-1.896,0.533-3.95,1.071-6.212,1.492
			c-5.005,1.032-10.066,1.772-15.157,2.218c0.244-7.695,5.623-14.267,13.117-16.029c7.494-1.762,15.238,1.726,18.885,8.506
			C190.759,488.378,187.203,489.653,183.563,490.637z M328.475,490.65c-3.646-1.009-7.207-2.301-10.652-3.864
			c3.652-6.749,11.369-10.219,18.842-8.473c7.472,1.747,12.852,8.278,13.134,15.947c-5.159-0.426-10.29-1.151-15.365-2.172
			C332.388,491.708,330.338,491.171,328.475,490.65z M375.125,494.438l-4.646,0.258c-0.978,0.063-2.085,0.056-3.099,0.094
			c-2.28-11.443,5.076-22.589,16.493-24.994c11.418-2.404,22.643,4.829,25.172,16.22c-1.063,0.535-2.152,1.068-3.391,1.583
			C395.882,491.41,385.589,493.715,375.125,494.438L375.125,494.438z M417.661,466.307c-7.727-9.509-19.564-14.71-31.795-13.971
			s-23.355,7.328-29.88,17.699c-6.6-6.232-15.426-9.551-24.497-9.211c-9.07,0.34-17.624,4.31-23.739,11.019
			c3.325-48.906,1.279-98.03-6.102-146.49c14.884-4.98,28.815-12.451,41.199-22.094
			C362.232,322.497,413.277,381.117,417.661,466.307z M493.319,232.688c-11.19-4.702-24.121-2.021-32.519,6.743
			c-5.539-5.709-13.135-8.961-21.09-9.03c-7.955-0.068-15.605,3.053-21.242,8.666c1.908-18.249,16.507-32.571,34.788-34.129
			C471.539,203.38,488.351,215.025,493.319,232.688z M436.625,263.146c-3.454-0.578-6.799-1.68-9.919-3.268
			c0.196-6.993,5.977-12.53,12.972-12.424c6.995,0.106,12.606,5.816,12.589,12.813c-0.006,1.41-0.252,2.809-0.729,4.136
			c-3.552-0.011-7.101-0.239-10.626-0.683C439.375,263.567,437.833,263.333,436.625,263.146z M469.911,263.924
			c-1.9-6.106,1.04-12.672,6.861-15.319c5.821-2.648,12.702-0.55,16.056,4.894C490.832,257.752,486.135,262.528,469.911,263.924
			L469.911,263.924z M477.69,191.998c-25.382-10.588-54.688-0.928-68.798,22.679c-3.402-5.58-8.061-10.288-13.606-13.747
			l3.006-54.762C414.345,149.375,454.492,160.317,477.69,191.998L477.69,191.998z M148.292,42.192
			c14.871-16.029,35.751-25.134,57.617-25.125h100.183c21.561-0.126,42.203,8.719,56.983,24.417
			C377.544,56.622,385.067,77.095,383.842,98v0.017l-5.683,104.463c-0.062,0.588-0.096,1.171-0.125,1.754l-0.067,1.042
			c-2.289,31.181-16.86,60.179-40.513,80.625c-31.611,27.318-74.966,36.64-115.012,24.73c-0.354-0.106-0.688-0.267-1.041-0.377
			c-4.158-1.265-8.242-2.763-12.232-4.487c-1.562-0.674-3.036-1.515-4.567-2.252c-2.991-1.454-5.982-2.908-8.848-4.621
			c-1.697-0.996-3.319-2.101-4.961-3.177c-1.78-1.157-3.605-2.274-5.293-3.505c-3.383-2.462-6.63-5.105-9.728-7.917
			c-22.551-20.189-36.467-48.282-38.862-78.454l-8.68-105.75C126.442,78.825,133.73,57.794,148.292,42.192z M114.853,145.916
			l4.37,53.472c-6.684,3.518-12.277,8.798-16.173,15.268c-14.092-23.605-43.398-33.254-68.757-22.638
			C58.164,159.382,100.02,148.742,114.853,145.916z"/>
		<path d="M180.313,80.717c11.063,4.465,22.582,7.706,34.35,9.667c13.652,2.357,27.483,3.523,41.338,3.483
			c13.854,0.04,27.685-1.126,41.337-3.483c11.768-1.96,23.287-5.202,34.35-9.667c2.815-1.172,4.791-3.756,5.184-6.779
			c0.393-3.024-0.857-6.027-3.279-7.879c-2.422-1.852-5.648-2.271-8.463-1.1c-9.906,3.983-20.217,6.873-30.75,8.617
			c-25.407,4.283-51.351,4.283-76.758,0c-10.533-1.744-20.844-4.633-30.75-8.617c-4.352-1.811-9.347,0.248-11.158,4.6
			C173.901,73.91,175.961,78.906,180.313,80.717z"/>
		<path d="M298.667,247.467h-85.333c-4.713,0-8.533,3.821-8.533,8.533c0,4.713,3.821,8.533,8.533,8.533h85.333
			c4.713,0,8.533-3.821,8.533-8.533C307.2,251.287,303.38,247.467,298.667,247.467z"/>
		<path d="M264.533,281.6h-17.067c-4.713,0-8.533,3.821-8.533,8.533c0,4.713,3.821,8.533,8.533,8.533h17.067
			c4.713,0,8.533-3.821,8.533-8.533C273.067,285.421,269.246,281.6,264.533,281.6z"/>
	</g>
</g>
<g>
</g>
<g>
</g>
<g>
</g>
<g>
</g>
<g>
</g>
<g>
</g>
<g>
</g>
<g>
</g>
<g>
</g>
<g>
</g>
<g>
</g>
<g>
</g>
<g>
</g>
<g>
</g>
<g>
</g>
</svg>
