<svg id="Capa_1" enable-background="new 0 0 497 497" height="512" viewBox="0 0 497 497" width="512" xmlns="http://www.w3.org/2000/svg"><g><path d="m458.851 84.026c-13.292 0-26.584 34.232-26.584 63.39 0 29.157 19.724 28.514 26.584 28.514 6.861 0 26.585.643 26.585-28.514-.001-29.158-13.293-63.39-26.585-63.39z" fill="#7dcf84"/><path d="m458.85 204.204c-4.143 0-7.5-3.358-7.5-7.5v-49.117c0-4.142 3.357-7.5 7.5-7.5s7.5 3.358 7.5 7.5v49.117c0 4.142-3.357 7.5-7.5 7.5z" fill="#b57f5f"/><path d="m71.518 33.73c-13.292 0-26.585 34.232-26.585 63.39 0 29.157 19.724 28.514 26.585 28.514 6.86 0 26.584.643 26.584-28.514.001-29.157-13.291-63.39-26.584-63.39z" fill="#7dcf84"/><path d="m71.518 153.908c-4.143 0-7.5-3.358-7.5-7.5v-49.117c0-4.142 3.357-7.5 7.5-7.5 4.142 0 7.5 3.358 7.5 7.5v49.117c0 4.142-3.357 7.5-7.5 7.5z" fill="#b57f5f"/><path d="m92.006 479.673h-84.218c-4.301 0-7.788-3.487-7.788-7.788v-228.212l241-20 256 20v107.638z" fill="#cbf1fd"/><path d="m467 243.673h30v132.725h-30z" fill="#b6edff"/><ellipse cx="330.17" cy="69.757" fill="#ffea9a" rx="52.43" ry="52.43" transform="matrix(.23 -.973 .973 .23 186.422 375.068)"/><path d="m330.17 17.327c-5.214 0-10.246.772-15 2.189 21.645 6.453 37.43 26.499 37.43 50.241s-15.786 43.788-37.43 50.241c4.754 1.417 9.786 2.189 15 2.189 28.957 0 52.43-23.474 52.43-52.431 0-28.956-23.474-52.429-52.43-52.429z" fill="#ffe06f"/><path d="m497 462.434v-111.123h-148.101c-76.731 0-150.225 30.919-203.878 85.773-16.044 16.402-33.867 30.655-53.014 42.59h387.755c9.52-.001 17.238-7.719 17.238-17.24z" fill="#b5ebb9"/><path d="m9.144 135.923h110.526c38.181 0 75.837 8.889 109.987 25.964 34.15 17.075 71.806 25.964 109.986 25.964h146.246c6.136 0 11.111 4.974 11.111 11.111v44.711h-497v-98.607c0-5.049 4.094-9.143 9.144-9.143z" fill="#b5ebb9"/><path d="m467 351.311v128.363h22.212c4.301 0 7.788-3.487 7.788-7.788v-120.575z" fill="#89e391"/><path d="m485.889 187.852h-30c6.136 0 11.111 4.974 11.111 11.111v44.711h30v-44.711c0-6.137-4.974-11.111-11.111-11.111z" fill="#89e391"/><g fill="#7dcf84"><path d="m397.647 224.993c-21.814 0-43.628 68.256-43.628 116.105s32.369 46.795 43.628 46.795 43.628 1.054 43.628-46.795c-.001-47.849-21.814-116.105-43.628-116.105z"/><path d="m180.109 80.76c-15.781 0-31.563 40.643-31.563 75.261 0 34.617 23.418 33.854 31.563 33.854s31.563.763 31.563-33.854c0-34.618-15.782-75.261-31.563-75.261z"/><circle cx="315.189" cy="432.505" r="7.5"/><circle cx="248.5" cy="421.282" r="7.5"/><circle cx="62.83" cy="189.876" r="7.5"/></g><path d="m113.881 294.1h-30.429c-4.143 0-7.5-3.358-7.5-7.5s3.357-7.5 7.5-7.5h30.429c4.143 0 7.5 3.358 7.5 7.5s-3.358 7.5-7.5 7.5z" fill="#91deff"/><path d="m94.59 413.07h-46.144c-4.143 0-7.5-3.358-7.5-7.5s3.357-7.5 7.5-7.5h46.144c4.142 0 7.5 3.358 7.5 7.5s-3.357 7.5-7.5 7.5z" fill="#91deff"/><path d="m193.816 335.395h-63.06c-4.143 0-7.5-3.358-7.5-7.5s3.357-7.5 7.5-7.5h63.06c4.143 0 7.5 3.358 7.5 7.5s-3.357 7.5-7.5 7.5z" fill="#91deff"/><path d="m397.647 432.505c-4.143 0-7.5-3.358-7.5-7.5v-97.212c0-4.142 3.357-7.5 7.5-7.5s7.5 3.358 7.5 7.5v97.212c0 4.142-3.357 7.5-7.5 7.5z" fill="#b57f5f"/><path d="m180.109 222.04c-4.143 0-7.5-3.358-7.5-7.5v-58.316c0-4.142 3.357-7.5 7.5-7.5s7.5 3.358 7.5 7.5v58.316c0 4.142-3.357 7.5-7.5 7.5z" fill="#b57f5f"/></g></svg>