<svg id="Capa_1" enable-background="new 0 0 511.902 511.902" height="512" viewBox="0 0 511.902 511.902" width="512" xmlns="http://www.w3.org/2000/svg"><g><path d="m231.873 10s194.922 132.092 194.922 296.979c0 107.653-87.27 194.922-194.922 194.922s-194.922-87.269-194.922-194.922c0-164.887 194.922-296.979 194.922-296.979z" fill="#c7eaf9"/><path d="m294.838 400.092c-83.416 0-154.277-53.741-179.856-128.489-4.975-14.54-26.238-12.491-28.331 2.733-1.009 7.339-1.546 14.785-1.546 22.322 0 81.8 66.312 148.111 148.111 148.111 24.999 0 48.55-6.194 69.204-17.131 13.524-7.161 8.246-27.588-7.058-27.546-.173 0-.349 0-.524 0z" fill="#fff"/><path d="m400.129 10s74.822 50.704 74.822 113.997c0 41.323-33.499 74.822-74.822 74.822s-74.822-33.499-74.822-74.822c0-63.293 74.822-113.997 74.822-113.997z" fill="#e3f5fc"/><path d="m484.951 123.997c0-67.816-75.978-120.083-79.212-122.275-3.388-2.295-7.832-2.295-11.22 0-.804.545-19.916 13.59-39.202 34.817-12.588 13.854-22.313 28.04-29.026 42.194-45.175-47.234-86.928-75.738-88.808-77.012-3.387-2.294-7.833-2.296-11.22 0-2.03 1.376-50.282 34.312-99.252 88.211-28.884 31.789-51.93 64.261-68.499 96.513-20.942 40.765-31.561 81.319-31.561 120.534 0 112.995 91.928 204.923 204.922 204.923s204.923-91.928 204.923-204.923c0-32.448-7.306-65.87-21.689-99.512 39.649-7.098 69.844-41.812 69.844-83.47zm-253.078 367.905c-101.966 0-184.922-82.956-184.922-184.923 0-35.938 9.838-73.345 29.242-111.182 15.717-30.649 37.696-61.633 65.325-92.09 37.908-41.789 76.284-71.188 90.356-81.438 13.62 9.921 49.995 37.775 86.676 77.427-2.15 8.197-3.242 16.321-3.242 24.301 0 44.612 34.627 81.264 78.413 84.554 15.3 33.455 23.076 66.548 23.076 98.428-.001 101.967-82.957 184.923-184.924 184.923zm168.256-303.084c-35.743 0-64.822-29.079-64.822-64.821 0-47.491 48.127-88.71 64.822-101.577 16.695 12.867 64.822 54.086 64.822 101.577 0 35.742-29.079 64.821-64.822 64.821z" fill="#93b5fd"/></g></svg>