<svg id="Capa_1" enable-background="new 0 0 512 512" height="512" viewBox="0 0 512 512" width="512" xmlns="http://www.w3.org/2000/svg"><g><g><path d="m239.806 12.573c-46.873 0-90.136 24.324-114.765 63.974-69.825 5.247-125.041 63.98-125.041 135.423 0 74.884 60.662 135.807 135.227 135.807h120.67l28.518-178.155-28.518-156.092c-5.278-.632-10.647-.957-16.091-.957z" fill="#9de1f7"/><path d="m403.633 130.555c-10.148 0-19.974 1.414-29.294 4.05-6.359-63.111-55.922-113.598-118.442-121.075v334.247h147.739c59.639-.002 108.158-48.724 108.158-108.611 0-59.888-48.52-108.611-108.161-108.611z" fill="#2fbfef"/></g><path d="m.5 469.427h80.615v30h-80.615z" fill="#2fbfef"/><path d="m360.59 499.427v-30c16.795 0 30.458-13.669 30.458-30.47 0-16.802-13.663-30.471-30.458-30.471h-8.049v-30h8.049c33.33 0 60.446 27.127 60.446 60.471.001 33.343-27.115 60.47-60.446 60.47z" fill="#0fa8dc"/><path d="m269.627 499.427v-30c16.795 0 30.458-13.669 30.458-30.47 0-16.802-13.663-30.471-30.458-30.471h-8.049v-30h8.049c33.33 0 60.446 27.127 60.446 60.471 0 33.343-27.116 60.47-60.446 60.47z" fill="#0fa8dc"/><path d="m75.352 378.487h156.238v30h-156.238z" fill="#2fbfef"/><path d="m.5 378.487h45.04v30h-45.04z" fill="#2fbfef"/><g><path d="m112.043 469.427v30h143.854l8.68-15.316-8.68-14.684z" fill="#2fbfef"/><path d="m451.554 378.487h-8.048v30h8.048c16.795 0 30.458 13.669 30.458 30.471 0 16.801-13.663 30.47-30.458 30.47h-195.657v30h195.657c33.33 0 60.446-27.127 60.446-60.47 0-33.344-27.116-60.471-60.446-60.471z" fill="#0fa8dc"/></g></g></svg>