<svg id="Capa_1" enable-background="new 0 0 511.441 511.441" height="512" viewBox="0 0 511.441 511.441" width="512" xmlns="http://www.w3.org/2000/svg"><g><g><path d="m492.512 234.093-.473-50.79-35.591-36.229-19.903-46.703-46.704-19.904-36.229-35.591-50.79-.474-47.101-18.929-10 170.387 10 108.581 190.22 121.581 46.098-46.937.473-50.789 18.929-47.102z" fill="#dc3c7d"/><g fill="#de5e91"><path d="m255.72 25.473h.001v278.968h-.001z"/><path d="m208.619 44.402-50.789.473-36.229 35.591-46.704 19.904-19.903 46.703-35.592 36.23-.473 50.789-18.929 47.102 18.929 47.101.473 50.789 46.105 46.932 190.213-121.574v-278.969z"/></g></g><g><path d="m270.721 286.639h-15l-10 111.503 10 87.826h15z" fill="#0ed678"/><path d="m240.721 286.639h15v199.329h-15z" fill="#04eb84"/></g><g><path d="m426.387 266.194h-134.501l95.159-95.333-21.233-21.193-95.092 95.266v-134.407h-14.999l-10 140.326 10 45.341h170.666z" fill="#a1003c"/><path d="m240.72 110.527v134.407l-95.092-95.266-21.232 21.193 95.158 95.333h-134.5v30h170.666.001v-185.667z" fill="#cf0150"/></g></g></svg>